<svg width="250" height="250" xmlns="http://www.w3.org/2000/svg">
 <g id="Layer_1">
  <title>Layer 1</title>
  <rect fill="#42b883" stroke="#000" x="39" y="69" width="50" height="50" id="svg_1" stroke-width="0" rx="10"/>
  <rect fill="#42b883" x="99" y="189" width="50" height="50" id="svg_6" stroke-width="0" stroke="#000" rx="10"/>
  <rect fill="#42b883" stroke="#000" x="69" y="129" width="50" height="50" id="svg_24" stroke-width="0" rx="10"/>
  <rect fill="#42b883" stroke="#000" x="159" y="68" width="50" height="50" id="svg_26" stroke-width="0" rx="10"/>
  <rect fill="#42b883" stroke="#000" x="129" y="129" width="50" height="50" id="svg_28" stroke-width="0" rx="10"/>
  <path fill="#42b883" stroke="#000" stroke-width="0" opacity="NaN" d="m126.99999,109.4l-2.99999,16.6" id="svg_31"/>
  <rect fill="#35495e" x="99" y="69" width="50" height="50" id="svg_32" stroke-width="0" stroke="#000" rx="10"/>
  <rect fill="#42b883" stroke="#000" x="9" width="50" height="50" id="svg_33" stroke-width="0" rx="10" y="9"/>
  <rect fill="url(#svg_10)" x="69" width="50" height="50" id="svg_35" stroke="#000" rx="10" y="9" stroke-width="0"/>
  <rect fill="url(#svg_15)" x="129" y="9" width="50" height="50" id="svg_36" stroke-width="0" stroke="#000" rx="10"/>
  <rect fill="#42b883" stroke="#000" x="189" y="9" width="50" height="50" id="svg_37" stroke-width="0" rx="10"/>
 </g>
 <defs>
  <linearGradient y2="0.00312" x2="1" y1="0.19453" x1="0.59375" id="svg_10">
   <stop offset="0.49219" stop-color="#35495e"/>
   <stop offset="0.49609" stop-color="rgba(255,255,255,0)"/>
  </linearGradient>
  <linearGradient y2="0" x2="0" y1="0.19844" x1="0.39453" id="svg_15">
   <stop offset="0.49219" stop-color="#35495e"/>
   <stop offset="0.49609" stop-color="rgba(255,255,255,0)"/>
  </linearGradient>
 </defs>
</svg>